<?xml version="1.0" ?><svg id="Layer_2_copy" style="enable-background:new 0 0 100 100;" version="1.1" viewBox="0 0 100 100" xml:space="preserve" xmlns="http://www.w3.org/2000/svg" xmlns:xlink="http://www.w3.org/1999/xlink"><path d="M83.4,82.32c-3.35-5.99-5.87-12.42-8.01-19.15l3.24-3.79c1.36-1.36,2.08-3.39,2.13-6.03c-0.02-1.51-0.29-2.74-0.82-3.75  l-8.25-17.14l-0.15-0.25c-2.72-3.5-7.97-3.98-9.49-4.03l-5.93-1.7c1.34-1.79,2.16-4.14,2.16-6.72c0-5.56-3.77-10.08-8.4-10.08  c-4.63,0-8.4,4.52-8.4,10.08c0,2.61,0.84,4.99,2.21,6.79l-5.68,1.62c-2.55,0.08-7.18,0.74-9.56,4.12L20.07,49.6  c-0.54,1.01-0.81,2.24-0.82,3.75c0.05,2.66,0.77,4.71,2.15,6.07l3.27,3.84c-1.98,6.3-4.49,12.67-8.07,19.07  c-0.23,0.42-0.28,0.91-0.12,1.36c0.15,0.45,0.49,0.82,0.93,1c0.22,0.09,5.48,2.29,15.78,2.29c1.61,0,3.3-0.11,5.04-0.29v1.97  c0,0.93,0.75,1.68,1.68,1.68c0.93,0,1.68-0.75,1.68-1.68v-2.38v-1.7v-1.7V70.8c0.08-0.35,0.13-0.71,0.13-1.08  c0-0.38-0.05-0.75-0.13-1.12v-1.79H58.4v1.78c-0.08,0.37-0.13,0.74-0.13,1.12c0,0.36,0.06,0.72,0.13,1.08v9.22v1.7v1.7v5.24  c0,0.93,0.75,1.68,1.68,1.68c0.93,0,1.68-0.75,1.68-1.68v-5.67c1.76-0.19,3.46-0.31,5.04-0.31c9.51,0,14.39,1.99,14.47,2.02  c0.66,0.28,1.42,0.11,1.9-0.42C83.66,83.73,83.75,82.95,83.4,82.32z M66.81,79.31c-1.61,0-3.3,0.11-5.04,0.29v-5.17  c0.49,0.15,0.99,0.24,1.51,0.24c1.33,0,2.64-0.54,3.56-1.48l5.99-7.02c1.64,4.93,3.51,9.7,5.78,14.27  C75.98,79.88,72.04,79.31,66.81,79.31z M38.24,83.3c-1.76,0.19-3.46,0.31-5.04,0.31c-6.23,0-10.47-0.85-12.68-1.45  c2.84-5.35,4.98-10.66,6.72-15.9l5.83,6.84l0.08,0.08c0.94,0.94,2.25,1.48,3.58,1.48h0.02c0.51,0,1.01-0.09,1.5-0.24V83.3z   M23.73,57.01c-0.54-0.4-1.16-2.12-1.13-3.66c0-0.99,0.22-1.81,0.42-2.17L31.31,34c0.28-0.42,0.77-0.81,1.39-1.15  c0.58-0.32,1.28-0.6,2.01-0.82c1.11-0.33,2.29-0.52,3.3-0.52h0.24l5.99-1.68l2.53-0.71c0.95,0.45,1.99,0.71,3.08,0.71  c1.12,0,2.19-0.27,3.17-0.75l2.63,0.75l5.66,1.61l0.45,0.07c0.96-0.02,2.28,0.22,3.53,0.62c0.7,0.22,1.38,0.5,1.96,0.8  c0.64,0.34,1.17,0.72,1.46,1.12l8.22,17.02l0.03,0.1c0.22,0.35,0.44,1.19,0.44,2.17c0.03,1.55-0.59,3.26-1.14,3.68l-2.02,2.37  l-1.3,1.52l-1.3,1.52l-7.19,8.42c-0.32,0.29-0.72,0.45-1.16,0.45c-0.56,0-1.04-0.25-1.38-0.71c-0.05-0.08-0.1-0.16-0.13-0.24  c-0.09-0.2-0.13-0.41-0.13-0.65c0-0.23,0.05-0.46,0.13-0.68c0.1-0.26,0.25-0.51,0.45-0.71l7.72-11.71l1.23-1.87l0.9-1.37  c0.15-0.24,0.24-0.49,0.27-0.75c0.02-0.17,0.02-0.34-0.01-0.51c-0.05-0.23-0.15-0.45-0.29-0.64c-0.12-0.17-0.27-0.32-0.45-0.44  c-0.67-0.43-1.25-0.9-1.76-1.39c-1.12-1.07-1.95-2.31-2.71-3.81c-0.7-1.38-1.34-2.97-2.09-4.86c-0.29-0.71-1.01-1.14-1.76-1.04  c-0.76,0.08-1.36,0.67-1.46,1.43l-3.16,22.08H41.38l-3.16-22.08c-0.1-0.76-0.71-1.34-1.44-1.43c-0.77-0.1-1.48,0.32-1.76,1.03  l-0.1,0.24c-0.74,1.77-1.39,3.33-2.17,4.75c-0.71,1.3-1.52,2.47-2.6,3.57c-0.54,0.55-1.14,1.08-1.82,1.6  c-0.17,0.13-0.31,0.29-0.42,0.46c-0.18,0.29-0.26,0.63-0.24,0.96c0.01,0.29,0.1,0.58,0.27,0.84l0.9,1.37l0.35,0.53  c0.25,0.37,0.64,0.62,1.07,0.7c0.42,0.08,0.87,0.02,1.25-0.23h0c0.39-0.24,0.64-0.62,0.72-1.06c0.1-0.44,0.02-0.89-0.24-1.26  l-0.42-0.62c1.66-1.46,2.97-3.14,4.13-5.28l2.35,16.39c-0.35-0.02-0.72,0.07-1.02,0.27c0,0,0,0-0.01,0  c-0.77,0.5-0.99,1.55-0.47,2.34l1.01,1.53l0.22,0.27c0.2,0.2,0.35,0.45,0.45,0.72c0.08,0.22,0.13,0.45,0.13,0.68  c0,0.23-0.05,0.44-0.13,0.63c-0.04,0.09-0.08,0.18-0.13,0.26c-0.34,0.45-0.82,0.71-1.38,0.71c-0.44,0-0.84-0.15-1.14-0.44  l-7.15-8.39l-1.3-1.53l-1.3-1.53l-1.92-2.25L23.73,57.01z M44.81,19.75c0-3.71,2.26-6.72,5.04-6.72c2.78,0,5.04,3.02,5.04,6.72  c0,2.4-0.95,4.51-2.38,5.7c-0.77,0.64-1.68,1.02-2.66,1.02c-0.95,0-1.83-0.36-2.59-0.96C45.8,24.33,44.81,22.19,44.81,19.75z   M62.18,62.32l2.08-14.64c1.16,2.2,2.47,3.85,4.12,5.19L62.18,62.32z M32.86,60.89c-0.5-0.77-0.29-1.82,0.49-2.32c0,0,0,0,0,0  c0.76-0.5,1.83-0.27,2.32,0.47c0.25,0.39,0.34,0.82,0.25,1.26c-0.1,0.45-0.35,0.82-0.72,1.08c0,0,0,0,0,0  c-0.28,0.18-0.6,0.27-0.92,0.27C33.7,61.65,33.18,61.36,32.86,60.89z M51.68,78.57v2.56v1.71v1.71v4.11c0,0.93-0.75,1.68-1.68,1.68  c-0.93,0-1.68-0.75-1.68-1.68v-3.5v-1.71v-1.71v-3.17c0-0.93,0.75-1.68,1.68-1.68C50.93,76.89,51.68,77.64,51.68,78.57z   M49.15,48.09c0.26,0.15,0.56,0.23,0.85,0.23c0.29,0,0.59-0.08,0.85-0.23c1.77-1.04,7.55-4.7,7.55-8.17c0-1.52-0.82-5.04-8.4-5.04  c-7.58,0-8.4,3.53-8.4,5.04C41.6,43.39,47.38,47.05,49.15,48.09z M50,38.24c2.43,0,5.04,0.53,5.04,1.68c0,0.84-2.35,3.03-5.04,4.75  c-2.69-1.72-5.04-3.9-5.04-4.75C44.96,38.76,47.57,38.24,50,38.24z"/></svg>