<?xml version="1.0" ?><svg id="Layer_2_copy" style="enable-background:new 0 0 100 100;" version="1.1" viewBox="0 0 100 100" xml:space="preserve" xmlns="http://www.w3.org/2000/svg" xmlns:xlink="http://www.w3.org/1999/xlink"><path d="M88.97,44.99c-0.29-0.07-7.28-1.46-17.49-4.3c-0.87-0.24-1.83,0.3-2.07,1.17c0,0,0,0,0,0.01c-0.12,0.42-0.07,0.87,0.15,1.28  c0.22,0.39,0.59,0.67,1.01,0.79c7.51,2.08,13.33,3.41,16.17,4.02c-0.2,1.08-0.55,2.74-1.14,4.79c-1.4,4.76-3.78,10.78-7.78,16.43  L67.79,58.77c-0.19-1.06-0.66-2.05-1.39-2.85L50.54,35.87c2.15,1.13,4.57,2.33,7.14,3.48c0.82,0.37,1.85-0.03,2.22-0.86  c0,0,0-0.01,0-0.01c0.18-0.4,0.2-0.85,0.03-1.27c-0.15-0.42-0.47-0.76-0.87-0.94c-5.67-2.53-10.74-5.39-13.36-6.94  c-1.32-1.53-3.57-2.16-5.5-1.5c0.29-1.6,0.18-3.29-0.33-4.94c-0.73-2.32-2.17-4.27-4.08-5.49c-2-1.29-4.26-1.64-6.36-0.98  c-0.95,0.3-1.8,0.79-2.54,1.43l-7.27-6.5c-1.11-1.09-2.55-1.68-4.1-1.68h-0.03c-1.77,0-3.41,0.79-4.54,2.17  c-0.82,0.99-1.28,2.28-1.28,3.61c0,1.65,0.65,3.21,1.81,4.4L29.07,38.1c-0.03,0.33-0.05,0.66-0.06,0.99c0,1.48,0.29,3.95,1.85,6.63  C33.8,51.99,36,58.53,37.5,65.43c-1.17,1.55-1.77,3.43-1.7,5.4c0.09,2.27,1.07,4.36,2.75,5.89c0.06,0.06,0.13,0.11,0.21,0.16  l0.59,0.39c0.36,3.69,0.56,7.48,0.57,11.38c0,0.92,0.76,1.68,1.68,1.68h0.12c5.47,0,10.32-0.71,14.62-1.92l0.48,0.32  c1.1,1.03,2.53,1.6,4.04,1.6c0.01,0,0.02,0,0.03,0c1.57-0.01,3.03-0.63,4.13-1.74c0.87-0.89,1.25-1.98,1.09-3.17  c-0.04-0.3-0.13-0.61-0.24-0.9c2.04-1.13,3.91-2.39,5.61-3.72l8.74,7.81c1.17,1.17,2.8,1.8,4.45,1.72c1.66-0.08,3.21-0.87,4.27-2.16  c1.89-2.3,1.63-5.83-0.55-8.02l-8.16-8.47c0.77-1.05,1.47-2.1,2.1-3.13c6.34-10.25,7.85-20.52,8-21.66v-0.03  C90.42,45.97,89.83,45.16,88.97,44.99z M86.33,86.03c-0.46,0.56-1.11,0.9-1.83,0.93c-0.72,0.06-1.4-0.22-1.98-0.8l-8.46-7.56  l-1.27-1.13l-1.29-1.15L59.44,65.55c-0.47-0.42-1.12-0.54-1.71-0.32l-11.24,4.22c-0.57,0.22-0.99,0.73-1.07,1.34  c-0.09,0.61,0.16,1.21,0.65,1.58l11.69,8.77c0.05,0.04,0.11,0.07,0.16,0.11c0.87,0.51,1.91,1.25,2.8,2.02  c0.5,0.43,0.95,0.87,1.31,1.29c0.41,0.49,0.69,0.94,0.74,1.31c0.01,0.07,0.01,0.13-0.04,0.23c-0.02,0.04-0.06,0.09-0.11,0.14  c-0.46,0.47-1.08,0.73-1.74,0.73c-0.06,0-0.12-0.01-0.18-0.02c-0.59-0.05-1.19-0.29-1.63-0.72c-0.08-0.08-0.17-0.15-0.27-0.22  l-0.14-0.09l-1.82-1.19l-14.32-9.4l-1.79-1.17c-0.02-0.02-0.03-0.04-0.05-0.05c-0.92-0.9-1.46-2.1-1.51-3.4  c-0.04-0.9,0.17-1.77,0.58-2.55c0.18-0.35,0.4-0.68,0.67-0.98l0.74-0.51l7.03-4.8l6.15-2.05l3.1,3.71l0.05,0.05  c1.19,1.31,2.87,2.07,4.62,2.07h0.02c1.21,0,2.4-0.39,3.34-1.09c0.64-0.47,1.17-1.07,1.57-1.74l8.72,9.05l1.2,1.24l1.18,1.23  l7.85,8.15C86.98,83.49,87.14,85.05,86.33,86.03z M59.71,78.39l-9.16-6.88l7.42-2.79l10.92,9.76c-1.52,1.15-3.16,2.23-4.93,3.19  C62.38,80.05,60.4,78.81,59.71,78.39z M43.26,86.94c-0.04-2.48-0.16-4.91-0.35-7.33l9.54,6.26C49.62,86.47,46.57,86.85,43.26,86.94z   M13.53,13.97c0.5-0.6,1.19-0.94,1.97-0.94c0.69,0,1.31,0.25,1.78,0.74l7.61,6.8c-0.04,0.1-0.09,0.19-0.13,0.28  c-0.86,2.09-0.94,4.52-0.21,6.84c0.16,0.52,0.36,1.02,0.59,1.49L13.89,17.5c-0.54-0.54-0.86-1.31-0.86-2.05  C13.03,14.88,13.2,14.37,13.53,13.97z M29.43,20.12c0.31-0.21,0.64-0.38,1-0.5c0.36-0.11,0.73-0.17,1.11-0.17  c0.81,0,1.65,0.26,2.43,0.76c1.24,0.8,2.2,2.11,2.69,3.67c0.31,0.99,0.41,1.99,0.3,2.94c-0.06,0.56-0.2,1.1-0.41,1.61  c-0.03,0.07-0.06,0.13-0.09,0.19c-0.25,0.54-0.57,1.02-0.96,1.4c-0.07,0.07-0.15,0.13-0.23,0.2c-0.38,0.32-0.81,0.57-1.29,0.72  c-0.1,0.03-0.19,0.05-0.29,0.07c-2.38,0.54-5-1.34-5.94-4.34c-0.39-1.25-0.44-2.54-0.16-3.7c0.07-0.29,0.16-0.58,0.27-0.85  c0.12-0.28,0.26-0.55,0.41-0.79C28.6,20.84,28.99,20.43,29.43,20.12z M42.41,31c0.37,0.13,0.69,0.38,0.9,0.74  c0.03,0.21,0.09,0.41,0.2,0.6c0.04,0.08,0.09,0.15,0.15,0.22l0.39,0.49l2.02,2.56l14.66,18.54l1.11,1.4l1.1,1.39l0.87,1.1l0.08,0.08  c0.4,0.47,0.64,1.06,0.64,1.68c0,0.13-0.01,0.26-0.03,0.39c-0.1,0.67-0.44,1.25-1.01,1.66c-0.98,0.72-2.6,0.47-3.5-0.52l-2.22-2.66  l0,0l-1.16-1.39l-1.15-1.38l0,0L41.21,38.84c-0.12-0.15-0.28-0.26-0.44-0.35c-0.6-0.34-1.39-0.32-1.93,0.13  c-0.08,0.07-0.15,0.14-0.21,0.22l-0.06,0.08c-0.45,0.62-0.45,1.47,0.05,2.07c0,0.02,0.02,0.02,0.02,0.02l13.38,16.04l0,0l-4.16,1.39  l0,0L35.99,46.82c-0.69-0.67-1.27-1.37-1.76-2.09c-0.35-0.51-0.67-1.04-0.92-1.57c-0.17-0.36-0.31-0.73-0.44-1.11  c-0.09-0.27-0.17-0.54-0.23-0.81c-0.16-0.69-0.24-1.39-0.25-2.11c0-0.01,0-0.02,0-0.04c-0.01-0.84,0.11-1.56,0.25-2.13  c0.12-0.46,0.25-0.83,0.36-1.08c0.15-0.35,0.34-0.67,0.5-0.91c0.08-0.08,0.13-0.15,0.17-0.18h0.02l1.21-0.61  c0.03-0.01,0.06-0.01,0.09-0.02c0.77-0.24,1.47-0.61,2.11-1.08l1.16-0.58l1.49-0.74l0.13-0.07l1.22-0.61  c0.14-0.08,0.29-0.12,0.43-0.15c0.11-0.02,0.22-0.03,0.32-0.03C42.05,30.89,42.23,30.94,42.41,31z M30.2,33.97  c-0.05,0.1-0.1,0.2-0.15,0.3l-0.63-0.66C29.67,33.75,29.93,33.87,30.2,33.97z M44.79,60.11l-4.4,3.01  c-0.82-3.5-1.81-6.91-2.98-10.22L44.79,60.11z M63.08,41.04c-0.19-0.4-0.2-0.86-0.05-1.28c0,0,0-0.01,0.01-0.01  c0.31-0.83,1.27-1.29,2.13-0.99c0,0,0,0,0.02,0c0.87,0.3,1.3,1.26,1.01,2.13c0,0.01,0,0.02-0.01,0.02  c-0.23,0.65-0.87,1.11-1.58,1.11c-0.2,0-0.39-0.03-0.57-0.1c-0.02,0-0.02,0-0.03-0.02C63.6,41.75,63.26,41.45,63.08,41.04z"/></svg>